<?xml version="1.0" standalone="no"?>
<!DOCTYPE svg PUBLIC "-//W3C//DTD SVG 20010904//EN"
 "http://www.w3.org/TR/2001/REC-SVG-20010904/DTD/svg10.dtd">
<svg version="1.0" xmlns="http://www.w3.org/2000/svg"
 width="708.000000pt" height="232.000000pt" viewBox="0 0 708.000000 232.000000"
 preserveAspectRatio="xMidYMid meet">

<g transform="translate(0.000000,232.000000) scale(0.100000,-0.100000)"
fill="#000000" stroke="none">
<path d="M2680 1560 l0 -330 243 0 243 0 52 53 52 53 0 74 c0 72 -1 75 -37
112 l-37 38 37 38 c36 37 37 40 37 113 l0 75 -53 52 -53 52 -242 0 -242 0 0
-330z m418 133 l-3 -58 -122 -3 -123 -3 0 61 0 60 125 0 126 0 -3 -57z m2
-258 l0 -55 -125 0 -125 0 0 55 0 55 125 0 125 0 0 -55z"/>
<path d="M3370 1848 c0 -35 16 -67 110 -218 l110 -177 0 -111 0 -112 85 0 85
0 0 110 0 110 110 177 c95 154 110 184 110 220 l0 43 -74 0 -73 0 -73 -125
c-40 -69 -77 -128 -81 -131 -4 -2 -43 54 -85 126 l-76 130 -74 0 -74 0 0 -42z"/>
<path d="M4040 1820 l0 -70 95 0 95 0 0 -260 0 -260 85 0 85 0 0 260 0 260 95
0 95 0 0 70 0 70 -275 0 -275 0 0 -70z"/>
<path d="M4680 1612 l0 -278 53 -52 53 -52 227 0 227 0 0 75 0 75 -195 0 -195
0 0 55 0 55 170 0 170 0 0 70 0 70 -170 0 -171 0 3 58 3 57 193 3 192 2 0 70
0 70 -280 0 -280 0 0 -278z"/>
<path d="M5417 1842 l-47 -48 0 -100 0 -100 53 -52 53 -52 157 0 157 0 0 -55
0 -55 -123 0 c-119 0 -124 1 -147 25 -20 22 -32 25 -87 25 l-63 0 0 -48 c0
-44 4 -51 53 -100 l53 -52 192 0 193 0 49 46 50 47 0 106 0 107 -48 47 -48 47
-162 0 -163 0 3 58 3 57 120 3 121 3 29 -31 c26 -27 35 -30 87 -30 l58 0 0 53
c0 50 -3 55 -48 100 l-48 47 -200 0 -200 0 -47 -48z"/>
<path d="M6040 1820 l0 -70 39 0 c45 0 58 -12 36 -30 -8 -7 -15 -21 -15 -31 0
-30 54 -25 85 8 23 25 25 36 25 110 l0 83 -85 0 -85 0 0 -70z"/>
<path d="M6292 1563 l3 -328 83 -3 82 -3 0 181 c0 109 4 179 9 175 5 -3 65
-84 132 -180 l122 -175 73 0 74 0 0 330 0 330 -85 0 -85 0 -2 -180 -3 -181
-125 180 -125 180 -78 1 -77 0 2 -327z"/>
<path d="M247 1712 l-87 -87 260 -260 260 -260 -260 -260 -260 -260 93 -93 92
-92 350 350 350 350 -350 350 c-192 193 -352 350 -355 350 -3 0 -45 -39 -93
-88z"/>
<path d="M2680 670 l0 -360 273 0 273 0 52 53 52 53 0 89 0 89 -37 38 -37 38
37 38 37 38 0 90 0 90 -53 52 -53 52 -272 0 -272 0 0 -360z m460 140 l0 -60
-140 0 -140 0 0 60 0 60 140 0 140 0 0 -60z m0 -280 l0 -60 -140 0 -140 0 0
60 0 60 140 0 140 0 0 -60z"/>
<path d="M3470 670 l0 -360 95 0 95 0 0 120 0 120 73 0 73 0 73 -120 73 -120
89 0 89 0 0 40 c0 31 -12 58 -56 126 l-56 86 56 57 56 57 0 119 0 119 -57 58
-57 58 -273 0 -273 0 0 -360z m470 120 l0 -80 -140 0 -140 0 0 80 0 80 140 0
140 0 0 -80z"/>
<path d="M4250 960 l0 -70 30 0 30 0 0 -220 0 -220 -30 0 -30 0 0 -70 0 -70
150 0 150 0 0 70 c0 68 -1 70 -25 70 l-25 0 0 220 0 220 25 0 c24 0 25 2 25
70 l0 70 -150 0 -150 0 0 -70z"/>
<path d="M4732 977 l-52 -53 0 -255 0 -255 53 -52 53 -52 200 0 200 0 52 53
c49 50 52 55 52 105 l0 52 -68 0 c-60 0 -71 -3 -92 -25 -22 -24 -29 -25 -142
-25 l-118 0 0 200 0 200 118 0 c113 0 120 -1 142 -25 21 -22 32 -25 92 -25
l68 0 0 53 c0 50 -2 55 -53 105 l-53 52 -200 0 -200 0 -52 -53z"/>
<path d="M5440 670 l0 -360 95 0 95 0 0 140 0 140 63 0 62 0 80 -137 80 -138
88 -3 87 -3 0 46 c0 39 -11 63 -80 175 -44 72 -80 135 -80 140 0 5 36 68 80
140 69 112 80 136 80 175 l0 46 -87 -3 -87 -3 -80 -137 -81 -138 -62 0 -63 0
0 140 0 140 -95 0 -95 0 0 -360z"/>
<path d="M6272 977 l-52 -53 0 -115 0 -115 53 -52 53 -52 177 0 177 0 0 -60 0
-60 -138 0 c-135 0 -139 1 -162 25 -21 22 -32 25 -92 25 l-68 0 0 -53 c0 -50
2 -55 53 -105 l53 -52 220 0 220 0 52 53 52 53 0 109 0 109 -57 58 -57 58
-178 0 -178 0 0 60 0 60 138 0 c135 0 139 -1 162 -25 21 -22 32 -25 97 -25
l73 0 0 53 c0 50 -2 55 -53 105 l-53 52 -220 0 -220 0 -52 -53z"/>
<path d="M1080 490 l0 -130 590 0 590 0 0 130 0 130 -590 0 -590 0 0 -130z"/>
</g>
</svg>
